<svg width="24" height="24" viewBox="0 0 24 24" fill="none" xmlns="http://www.w3.org/2000/svg">
<path d="M12 10.6799C11.7389 10.6799 11.4837 10.7573 11.2666 10.9024C11.0495 11.0474 10.8803 11.2536 10.7804 11.4948C10.6805 11.736 10.6544 12.0015 10.7053 12.2575C10.7562 12.5136 10.882 12.7488 11.0666 12.9334C11.2512 13.118 11.4864 13.2438 11.7425 13.2947C11.9985 13.3456 12.264 13.3195 12.5052 13.2196C12.7464 13.1197 12.9525 12.9505 13.0976 12.7334C13.2427 12.5163 13.3201 12.2611 13.3201 12C13.3206 11.8265 13.2869 11.6546 13.2207 11.4942C13.1546 11.3338 13.0573 11.188 12.9347 11.0653C12.812 10.9427 12.6662 10.8454 12.5058 10.7793C12.3454 10.7131 12.1735 10.6794 12 10.6799ZM12 0C9.62663 0 7.30655 0.703788 5.33316 2.02236C3.35977 3.34094 1.8217 5.21508 0.913451 7.4078C0.00519934 9.60051 -0.232441 12.0133 0.230582 14.3411C0.693605 16.6688 1.83649 18.807 3.51472 20.4853C5.19295 22.1635 7.33115 23.3064 9.65892 23.7694C11.9867 24.2324 14.3995 23.9948 16.5922 23.0865C18.7849 22.1783 20.6591 20.6402 21.9776 18.6668C23.2962 16.6934 24 14.3734 24 12C23.9989 8.81774 22.7343 5.76613 20.4841 3.51593C18.2339 1.26574 15.1823 0.00110175 12 0ZM14.6283 14.6283L4.80048 19.2007L9.37293 9.37292L19.2007 4.80047L14.6283 14.6283Z" fill="#898989"/>
</svg>
