<svg width="26" height="24" viewBox="0 0 26 24" fill="none" xmlns="http://www.w3.org/2000/svg">
<path d="M11.6065 0.835876L8.43137 7.04204L1.33254 8.04028C1.04493 8.0805 0.774742 8.19763 0.552605 8.37837C0.330469 8.55912 0.165262 8.79627 0.0757072 9.06294C-0.0138478 9.32961 -0.0241706 9.61515 0.0459085 9.88719C0.115988 10.1592 0.263667 10.4069 0.472211 10.6021L5.60918 15.4314L4.3947 22.2483C4.34577 22.5239 4.37778 22.8072 4.48708 23.0662C4.59639 23.3252 4.77864 23.5496 5.01324 23.7139C5.24783 23.8782 5.52541 23.976 5.81459 23.9961C6.10377 24.0162 6.39302 23.9579 6.64964 23.8278L12.9999 20.6075L19.3501 23.8278C19.6068 23.9574 19.8959 24.0154 20.1848 23.9951C20.4738 23.9747 20.7512 23.8769 20.9856 23.7127C21.22 23.5485 21.4023 23.3244 21.5117 23.0656C21.6212 22.8069 21.6535 22.5238 21.605 22.2483L20.3899 15.4278L25.53 10.6021C25.7378 10.4068 25.8848 10.1593 25.9545 9.88761C26.0242 9.61591 26.0137 9.33084 25.9242 9.0646C25.8347 8.79836 25.6698 8.56157 25.4481 8.38098C25.2264 8.20039 24.9568 8.08319 24.6696 8.04263L17.5696 7.04145L14.3945 0.835287C14.2658 0.584501 14.067 0.373398 13.8205 0.225804C13.574 0.0782102 13.2897 0 12.9996 0C12.7094 0 12.4251 0.0782102 12.1786 0.225804C11.9321 0.373398 11.7333 0.584501 11.6047 0.835287L11.6065 0.835876Z" fill="#898989"/>
</svg>
