<svg width="24" height="24" viewBox="0 0 24 24" fill="none" xmlns="http://www.w3.org/2000/svg">
<path d="M23.352 10.4388C23.3514 10.4383 23.3509 10.4377 23.3503 10.4372L13.5602 0.647461C13.1429 0.22998 12.5881 0 11.9979 0C11.4078 0 10.853 0.229797 10.4355 0.647278L0.650537 10.4321C0.647241 10.4354 0.643946 10.4388 0.64065 10.4421C-0.216284 11.304 -0.214819 12.7024 0.644861 13.5621C1.03762 13.955 1.55636 14.1826 2.11099 14.2064C2.13351 14.2086 2.15621 14.2097 2.1791 14.2097H2.5693V21.4144C2.5693 22.84 3.72927 24 5.1553 24H8.9855C9.37368 24 9.68862 23.6852 9.68862 23.2969V17.6484C9.68862 16.9979 10.2178 16.4687 10.8684 16.4687H13.1275C13.7781 16.4687 14.3073 16.9979 14.3073 17.6484V23.2969C14.3073 23.6852 14.622 24 15.0104 24H18.8406C20.2666 24 21.4266 22.84 21.4266 21.4144V14.2097H21.7884C22.3784 14.2097 22.9332 13.9799 23.3509 13.5624C24.2115 12.7013 24.2118 11.3005 23.352 10.4388Z" fill="#FF5722"/>
</svg>
