<svg width="16" height="16" viewBox="0 0 16 16" fill="none" xmlns="http://www.w3.org/2000/svg">
<path d="M8 5.14286C7.43491 5.14286 6.88251 5.31043 6.41266 5.62437C5.9428 5.93832 5.57659 6.38454 5.36034 6.90662C5.14409 7.42869 5.08751 8.00317 5.19776 8.5574C5.308 9.11163 5.58012 9.62073 5.97969 10.0203C6.37927 10.4199 6.88837 10.692 7.4426 10.8022C7.99683 10.9125 8.57131 10.8559 9.09338 10.6397C9.61546 10.4234 10.0617 10.0572 10.3756 9.58734C10.6896 9.11749 10.8571 8.56509 10.8571 8C10.8549 7.24292 10.5532 6.51747 10.0179 5.98213C9.48252 5.44679 8.75708 5.14507 8 5.14286ZM14.8195 7.236C14.6428 5.69045 13.9478 4.25032 12.8477 3.15039C11.7477 2.05047 10.3075 1.35562 8.7619 1.17914V0H7.23809V1.18123C5.69252 1.35772 4.25231 2.05256 3.15226 3.15248C2.05221 4.25241 1.3572 5.69254 1.18053 7.23809H0V8.7619H1.18053C1.35717 10.3075 2.05215 11.7478 3.1522 12.8478C4.25224 13.9478 5.69246 14.6428 7.23809 14.8195V16H8.7619V14.8188C10.3075 14.6421 11.7478 13.9471 12.8478 12.8471C13.9478 11.7471 14.6428 10.3068 14.8195 8.76121H16V7.23809L14.8195 7.236ZM8 13.3333C6.94517 13.3333 5.91402 13.0205 5.03696 12.4345C4.1599 11.8485 3.47631 11.0155 3.07264 10.041C2.66898 9.06644 2.56336 7.99408 2.76915 6.95952C2.97493 5.92495 3.48288 4.97464 4.22876 4.22876C4.97464 3.48288 5.92495 2.97493 6.95952 2.76915C7.99408 2.56336 9.06644 2.66898 10.041 3.07264C11.0155 3.47631 11.8485 4.1599 12.4345 5.03696C13.0205 5.91402 13.3333 6.94517 13.3333 8C13.3293 9.41324 12.7661 10.7674 11.7668 11.7668C10.7674 12.7661 9.41324 13.3293 8 13.3333Z" fill="white"/>
</svg>
