<svg width="24" height="24" viewBox="0 0 24 24" fill="none" xmlns="http://www.w3.org/2000/svg">
<path d="M22.0213 11.997C22.0214 11.3732 22.2105 10.7641 22.5637 10.2499C22.9169 9.73565 23.4177 9.34044 24 9.11628C23.6982 7.85616 23.1981 6.65196 22.5184 5.54865C22.1218 5.72442 21.693 5.81587 21.2592 5.81718C20.745 5.81782 20.2387 5.68982 19.7867 5.44484C19.3346 5.19987 18.951 4.84572 18.6709 4.41464C18.3907 3.98356 18.2229 3.48927 18.1828 2.97679C18.1427 2.46431 18.2314 1.94993 18.441 1.48052C17.3409 0.801763 16.1399 0.302028 14.8829 0C14.6593 0.58264 14.2642 1.0838 13.7498 1.43731C13.2353 1.79082 12.6258 1.98007 12.0015 1.98007C11.3772 1.98007 10.7676 1.79082 10.2532 1.43731C9.73877 1.0838 9.34367 0.58264 9.12007 0C7.85951 0.301734 6.65488 0.801667 5.55119 1.48112C5.76079 1.95053 5.84955 2.46491 5.80941 2.97739C5.76926 3.48987 5.60148 3.98416 5.32135 4.41524C5.04121 4.84632 4.65763 5.20047 4.20555 5.44544C3.75347 5.69042 3.24725 5.81842 2.73302 5.81778C2.29889 5.81954 1.86946 5.72796 1.47384 5.54925C0.800302 6.65693 0.303086 7.86252 0 9.12288C0.582334 9.34652 1.08325 9.74123 1.43679 10.255C1.79033 10.7688 1.9799 11.3776 1.98055 12.0012C1.9812 12.6249 1.79289 13.234 1.44043 13.7486C1.08796 14.2631 0.587863 14.6589 0.00599624 14.8837C0.307836 16.1438 0.807943 17.348 1.48763 18.4513C2.05703 18.1987 2.68963 18.1244 3.30211 18.2382C3.91459 18.352 4.4782 18.6486 4.91871 19.089C5.35922 19.5294 5.65595 20.0928 5.76982 20.705C5.88368 21.3173 5.80934 21.9497 5.55659 22.5189C6.66083 23.1973 7.86528 23.6971 9.12547 24C9.34878 23.4187 9.74312 22.9188 10.2565 22.5662C10.7698 22.2136 11.378 22.0248 12.0009 22.0248C12.6238 22.0248 13.232 22.2136 13.7453 22.5662C14.2587 22.9188 14.653 23.4187 14.8763 24C16.1369 23.6983 17.3415 23.1983 18.4452 22.5189C18.1942 21.9497 18.1211 21.318 18.2356 20.7066C18.3501 20.0951 18.6468 19.5326 19.0868 19.0928C19.5268 18.6529 20.0896 18.3563 20.7012 18.2418C21.3128 18.1274 21.9448 18.2004 22.5142 18.4513C23.1928 17.3475 23.6928 16.1435 23.9958 14.8837C23.4145 14.6568 22.9152 14.2599 22.5629 13.745C22.2107 13.23 22.0219 12.6208 22.0213 11.997ZM12.0576 16.9894C11.0685 16.9894 10.1017 16.6962 9.27929 16.1469C8.45693 15.5976 7.81597 14.8169 7.43747 13.9034C7.05898 12.99 6.95995 11.9849 7.1529 11.0152C7.34586 10.0454 7.82213 9.1547 8.5215 8.45558C9.22087 7.75646 10.1119 7.28035 11.082 7.08746C12.052 6.89458 13.0575 6.99357 13.9713 7.37193C14.885 7.7503 15.666 8.39103 16.2155 9.21311C16.765 10.0352 17.0583 11.0017 17.0583 11.9904C17.0585 12.647 16.9294 13.2971 16.6781 13.9037C16.4269 14.5103 16.0586 15.0615 15.5942 15.5258C15.1297 15.99 14.5784 16.3582 13.9715 16.6094C13.3647 16.8605 12.7143 16.9896 12.0576 16.9894Z" fill="#898989"/>
</svg>
