<svg width="19" height="14" viewBox="0 0 19 14" fill="none" xmlns="http://www.w3.org/2000/svg">
<path d="M16.9159 8.31191C16.7857 8.18261 16.6098 8.10984 16.4263 8.10939C16.3354 8.10895 16.2452 8.12663 16.1612 8.1614C16.0771 8.19617 16.0008 8.24734 15.9367 8.31191C15.8718 8.37569 15.8204 8.45193 15.7856 8.53605C15.7508 8.62018 15.7333 8.71047 15.7342 8.8015C15.7356 8.98481 15.8082 9.16039 15.9367 9.29109L16.7433 10.0926H13.0073L6.87198 2.42468L6.86692 2.41962C6.80083 2.34249 6.71893 2.28046 6.62677 2.23775C6.53461 2.19503 6.43435 2.17262 6.33278 2.17204H0.692616C0.508923 2.17204 0.332753 2.24501 0.202863 2.3749C0.0729719 2.50479 0 2.68096 0 2.86465C0 3.04834 0.0729719 3.22451 0.202863 3.3544C0.332753 3.4843 0.508923 3.55727 0.692616 3.55727H6.00875L8.60605 6.82289L6.00875 10.0885H0.692616C0.508923 10.0885 0.332753 10.1615 0.202863 10.2914C0.0729719 10.4213 0 10.5974 0 10.7811C0 10.9648 0.0729719 11.141 0.202863 11.2709C0.332753 11.4008 0.508923 11.4737 0.692616 11.4737H6.33278C6.43378 11.4737 6.53354 11.4515 6.62504 11.4087C6.71653 11.3659 6.79755 11.3036 6.86236 11.2262L6.86743 11.2211L9.50018 7.91599L12.1329 11.2211L12.138 11.2262C12.2028 11.3036 12.2838 11.3659 12.3753 11.4087C12.4668 11.4515 12.5666 11.4737 12.6676 11.4737H16.8435L16.037 12.2752C15.9716 12.3387 15.92 12.4149 15.8851 12.4991C15.8503 12.5833 15.8331 12.6737 15.8345 12.7648C15.8358 12.9481 15.9085 13.1237 16.037 13.2544C16.1672 13.3837 16.3431 13.4565 16.5266 13.4569C16.6175 13.4574 16.7077 13.4397 16.7917 13.4049C16.8758 13.3701 16.9521 13.319 17.0162 13.2544L18.6783 11.6018C18.7801 11.5018 18.861 11.3824 18.9162 11.2508C18.9713 11.1191 18.9998 10.9778 18.9998 10.835C18.9998 10.6923 18.9713 10.551 18.9162 10.4193C18.861 10.2877 18.7801 10.1683 18.6783 10.0683L16.9159 8.31191Z" fill="white"/>
<path d="M10.6573 5.70447C10.6848 5.73803 10.7197 5.76483 10.7592 5.78282C10.7987 5.80081 10.8418 5.80952 10.8851 5.80826H10.8902C10.9339 5.80857 10.9772 5.79893 11.0167 5.78007C11.0561 5.76122 11.0908 5.73363 11.118 5.69941L12.9913 3.3593H16.7415L15.938 4.16077C15.8727 4.22426 15.821 4.30044 15.7861 4.38463C15.7513 4.46883 15.7341 4.55925 15.7355 4.65036C15.7368 4.83366 15.8095 5.00924 15.938 5.13995C16.0682 5.26925 16.2441 5.34202 16.4276 5.34247C16.5186 5.34291 16.6087 5.32523 16.6928 5.29046C16.7768 5.25568 16.8531 5.20452 16.9172 5.13995L18.6786 3.38866C18.7804 3.28858 18.8612 3.16923 18.9164 3.03758C18.9716 2.90594 19 2.76462 19 2.62187C19 2.47913 18.9716 2.33781 18.9164 2.20616C18.8612 2.07451 18.7804 1.95517 18.6786 1.85508L17.0149 0.202528C16.8847 0.0732238 16.7088 0.000456453 16.5253 8.07098e-06C16.4343 -0.000433491 16.3442 0.0172475 16.2601 0.0520185C16.1761 0.0867896 16.0998 0.137955 16.0357 0.202528C15.9707 0.266306 15.9193 0.342542 15.8845 0.426669C15.8497 0.510796 15.8323 0.601082 15.8332 0.692118C15.8346 0.875422 15.9072 1.051 16.0357 1.18171L16.8422 1.98318H12.6658C12.5648 1.98324 12.465 2.00544 12.3735 2.04821C12.282 2.09099 12.201 2.1533 12.1362 2.23076L12.1311 2.23582L10.1373 4.71972C10.0936 4.77293 10.0702 4.83988 10.0711 4.90873C10.072 4.97758 10.0973 5.04388 10.1424 5.0959L10.6573 5.70447Z" fill="white"/>
</svg>
