<svg width="36" height="36" viewBox="0 0 36 36" fill="none" xmlns="http://www.w3.org/2000/svg">
<g filter="url(#filter0_d_520_450)">
<path d="M18 30C24.6274 30 30 24.6274 30 18C30 11.3726 24.6274 6 18 6C11.3726 6 6 11.3726 6 18C6 24.6274 11.3726 30 18 30Z" fill="white"/>
</g>
<path d="M19.1979 24.9277L18.4052 25.741C18.326 25.823 18.2317 25.8882 18.1278 25.9326C18.0239 25.9771 17.9125 26 17.7999 26C17.6873 26 17.5759 25.9771 17.472 25.9326C17.3681 25.8882 17.2738 25.823 17.1946 25.741L10.2532 18.6225C10.173 18.5413 10.1093 18.4444 10.0659 18.3377C10.0224 18.231 10 18.1164 10 18.0008C10 17.8851 10.0224 17.7706 10.0659 17.6638C10.1093 17.5571 10.173 17.4603 10.2532 17.379L17.1946 10.259C17.2738 10.177 17.3681 10.1118 17.472 10.0674C17.5759 10.0229 17.6873 10 17.7999 10C17.9125 10 18.0239 10.0229 18.1278 10.0674C18.2317 10.1118 18.326 10.177 18.4052 10.259L19.1979 11.0723C19.2784 11.1552 19.3419 11.2538 19.3848 11.3622C19.4277 11.4706 19.4491 11.5866 19.4477 11.7036C19.4464 11.8206 19.4223 11.9361 19.3769 12.0435C19.3315 12.1508 19.2657 12.2478 19.1834 12.3287L14.8807 16.5344H25.1432C25.2558 16.5341 25.3673 16.5566 25.4714 16.6007C25.5754 16.6448 25.67 16.7096 25.7496 16.7912C25.8292 16.8729 25.8923 16.9699 25.9353 17.0767C25.9783 17.1835 26.0003 17.2979 26 17.4134V18.5855C26.0003 18.7011 25.9783 18.8155 25.9353 18.9223C25.8923 19.029 25.8292 19.1261 25.7496 19.2077C25.67 19.2894 25.5754 19.3542 25.4714 19.3982C25.3673 19.4423 25.2558 19.4649 25.1432 19.4646H14.8807L19.1834 23.6703C19.2666 23.7508 19.3332 23.8477 19.3791 23.9551C19.4251 24.0626 19.4495 24.1785 19.4508 24.2958C19.4522 24.4132 19.4305 24.5296 19.387 24.6382C19.3436 24.7467 19.2793 24.8452 19.1979 24.9277Z" fill="#FF5722"/>
<defs>
<filter id="filter0_d_520_450" x="0" y="0" width="36" height="36" filterUnits="userSpaceOnUse" color-interpolation-filters="sRGB">
<feFlood flood-opacity="0" result="BackgroundImageFix"/>
<feColorMatrix in="SourceAlpha" type="matrix" values="0 0 0 0 0 0 0 0 0 0 0 0 0 0 0 0 0 0 127 0" result="hardAlpha"/>
<feOffset/>
<feGaussianBlur stdDeviation="3"/>
<feColorMatrix type="matrix" values="0 0 0 0 1 0 0 0 0 0.772549 0 0 0 0 0.0235294 0 0 0 0.161 0"/>
<feBlend mode="normal" in2="BackgroundImageFix" result="effect1_dropShadow_520_450"/>
<feBlend mode="normal" in="SourceGraphic" in2="effect1_dropShadow_520_450" result="shape"/>
</filter>
</defs>
</svg>
