<svg width="16" height="16" viewBox="0 0 16 16" fill="none" xmlns="http://www.w3.org/2000/svg">
<path d="M4.48491 8.99459L6.85307 6.50169L0.979119 0.330065C0.352112 0.991819 0 1.88832 0 2.82297C0 3.75761 0.352112 4.65411 0.979119 5.31586L4.48491 8.99459ZM10.1582 7.40002C11.4383 8.0252 13.2373 7.58516 14.5682 6.18421C16.1665 4.50228 16.4762 2.09022 15.2463 0.794225C14.0164 -0.50177 11.7318 -0.175164 10.1254 1.50741C8.79515 2.90771 8.37651 4.80216 8.97041 6.14966L0.803241 14.747L1.98298 15.9889L7.74856 9.93725L13.5079 16L14.6877 14.7581L8.9283 8.69536L10.1582 7.40002Z" fill="white"/>
</svg>
