<svg width="18" height="18" viewBox="0 0 18 18" fill="none" xmlns="http://www.w3.org/2000/svg">
<path d="M9.00021 1C4.58123 1 1 4.32472 1 8.42996C1.01132 9.30404 1.17463 10.1668 1.48043 10.9681C1.78622 11.7694 2.2284 12.4932 2.78124 13.0974C2.4362 14.367 1.85158 15.5345 1.06864 16.5176C1.03482 16.5584 1.01231 16.6096 1.00397 16.6649C0.995618 16.7203 1.0018 16.7772 1.02174 16.8285C1.04055 16.8797 1.07229 16.9234 1.11291 16.954C1.15354 16.9845 1.20121 17.0005 1.24983 17C2.85319 16.9687 4.40076 16.3221 5.64366 15.1642C6.71682 15.6238 7.85373 15.8585 8.99979 15.857C13.4188 15.857 17 12.5323 17 8.4285C17 4.32472 13.4192 1 9.00021 1Z" stroke="#FF5722"/>
</svg>
