<svg width="24" height="24" viewBox="0 0 24 24" fill="none" xmlns="http://www.w3.org/2000/svg">
<path d="M22.8148 6.79999C21.5363 4.14105 19.3231 2.04628 16.598 0.915827C13.8728 -0.214628 10.8267 -0.301534 8.0415 0.671715C5.25631 1.64496 2.92727 3.61014 1.49927 6.19187C0.0712821 8.77359 -0.355572 11.7909 0.300247 14.6674C0.956065 17.5439 2.64858 20.078 5.0545 21.7857C7.46042 23.4933 10.4111 24.2548 13.3429 23.9246C16.2747 23.5944 18.9821 22.1958 20.948 19.9958C22.9139 17.7958 24.0004 14.9488 24 11.9984C24.0036 10.1982 23.5984 8.42072 22.8148 6.79999ZM18.0126 7.80695L13.9731 17.5307C13.8697 17.7784 13.6953 17.99 13.4719 18.1387C13.2484 18.2875 12.9859 18.3667 12.7175 18.3665H12.644C12.3636 18.3509 12.0949 18.2489 11.8748 18.0745C11.6547 17.9 11.4941 17.6617 11.415 17.3922L10.4805 14.1966L7.04123 13.5134C6.76602 13.4574 6.51487 13.3176 6.32236 13.1131C6.12985 12.9086 6.0054 12.6496 5.96611 12.3715C5.92682 12.0934 5.97463 11.81 6.10295 11.5602C6.23127 11.3103 6.43381 11.1064 6.68273 10.9764L16.1341 6.08152C16.3824 5.95706 16.6624 5.91015 16.9376 5.94687C17.2129 5.9836 17.4708 6.10226 17.6778 6.28745C17.8816 6.47691 18.0227 6.72402 18.0823 6.9958C18.142 7.26758 18.1173 7.55108 18.0116 7.80846L18.0126 7.80695Z" fill="white"/>
</svg>
