<svg width="12" height="12" viewBox="0 0 12 12" fill="none" xmlns="http://www.w3.org/2000/svg">
<path d="M8.76972 0H8.74083C8.19552 0.00251208 7.65941 0.146291 7.18094 0.418344C6.70247 0.690397 6.29672 1.08215 6.00036 1.5582C5.704 1.08215 5.29825 0.690397 4.81978 0.418344C4.34131 0.146291 3.80519 0.00251208 3.25988 0H3.23099C2.37155 0.00831059 1.55 0.36911 0.944973 1.00395C0.339941 1.6388 0.000338907 2.49636 0 3.3902C0.0717919 4.82957 0.551531 6.21466 1.3788 7.37103C3.11541 9.84004 6 12 6 12C6 12 8.88459 9.84004 10.6212 7.37103C11.4485 6.21456 11.9283 4.82933 12 3.38983C11.9996 2.49618 11.66 1.63883 11.0552 1.00408C10.4503 0.369338 9.62898 0.00850427 8.76972 0ZM9.9698 6.87612C8.8168 8.40069 7.48308 9.76754 6.00036 10.9441C4.51767 9.76622 3.18397 8.39828 2.03092 6.87278C1.30525 5.86072 0.880047 4.65004 0.807658 3.38983C0.807263 2.71781 1.06242 2.0729 1.51747 1.59577C1.97251 1.11863 2.59053 0.848006 3.2367 0.842912H3.26274C3.67819 0.843169 4.08658 0.954714 4.44854 1.1668C4.80266 1.37361 5.10348 1.66635 5.32541 2.0201C5.39914 2.13705 5.49971 2.23309 5.61803 2.29956C5.73636 2.36602 5.86873 2.40082 6.00321 2.40082C6.13769 2.40082 6.27006 2.36602 6.38839 2.29956C6.50671 2.23309 6.60728 2.13705 6.68102 2.0201C6.90369 1.66701 7.20434 1.37444 7.55788 1.1668C7.91984 0.954714 8.32823 0.843169 8.74368 0.842912H8.76972C9.41589 0.848006 10.0339 1.11863 10.489 1.59577C10.944 2.0729 11.1992 2.71781 11.1988 3.38983C11.1208 4.65083 10.694 5.86152 9.9698 6.87612Z" fill="#FF5722"/>
</svg>
