<svg width="16" height="16" viewBox="0 0 16 16" fill="none" xmlns="http://www.w3.org/2000/svg">
<path d="M14.4002 0H1.5998C1.17671 0.00155392 0.771499 0.170852 0.473057 0.470762C0.174615 0.770671 0.00730531 1.17671 0.00782625 1.5998L0 16L3.20026 12.7997H14.4002C14.8241 12.7984 15.2302 12.6294 15.5299 12.3296C15.8296 12.0299 15.9986 11.6238 16 11.1999V1.5998C15.9986 1.17593 15.8296 0.769815 15.5299 0.470092C15.2302 0.170368 14.8241 0.00137566 14.4002 0ZM3.20026 9.60013V7.62402L8.70468 2.11959C8.74158 2.08159 8.78573 2.05138 8.83452 2.03075C8.88331 2.01011 8.93574 1.99948 8.98871 1.99948C9.04168 1.99948 9.09411 2.01011 9.1429 2.03075C9.19168 2.05138 9.23584 2.08159 9.27273 2.11959L10.6886 3.53548C10.7266 3.57238 10.7568 3.61653 10.7775 3.66532C10.7981 3.71411 10.8087 3.76654 10.8087 3.81951C10.8087 3.87248 10.7981 3.92491 10.7775 3.9737C10.7568 4.02248 10.7266 4.06664 10.6886 4.10353L5.17637 9.60013H3.20026ZM12.8004 9.60013H6.80031L8.40011 8.00033H12.8004V9.60013Z" fill="white"/>
</svg>
