<svg width="20" height="20" viewBox="0 0 20 20" fill="none" xmlns="http://www.w3.org/2000/svg">
<path d="M19.7649 18.5464L14.1825 12.9083C15.4476 11.3132 16.0536 9.29352 15.876 7.26478C15.6983 5.23605 14.7504 3.35263 13.2274 2.00209C11.7044 0.651543 9.72208 -0.0633851 7.68838 0.00441691C5.65467 0.0722189 3.72429 0.917592 2.29445 2.36658C0.864612 3.81557 0.0440893 5.75795 0.00172565 7.79402C-0.040638 9.83009 0.69838 11.805 2.06671 13.3123C3.43504 14.8196 5.32858 15.7446 7.3577 15.8971C9.38683 16.0496 11.3972 15.4179 12.975 14.132L18.5209 19.7334C18.6777 19.8981 18.8934 19.9939 19.1206 19.9997C19.3479 20.0055 19.5681 19.9209 19.7332 19.7645C19.898 19.6067 19.9938 19.3901 19.9997 19.162C20.0056 18.9338 19.9212 18.7125 19.7649 18.5464ZM7.93436 14.2009C6.48136 14.2007 5.07338 13.6963 3.95031 12.7737C2.82724 11.851 2.05857 10.5671 1.77526 9.14084C1.49195 7.71455 1.71154 6.23407 2.3966 4.95165C3.08166 3.66922 4.18981 2.6642 5.53225 2.10781C6.87469 1.55142 8.36836 1.47809 9.75877 1.90031C11.1492 2.32253 12.3503 3.21419 13.1575 4.42335C13.9647 5.63251 14.328 7.08437 14.1855 8.53157C14.043 9.97876 13.4036 11.3317 12.3761 12.36C11.7941 12.9454 11.1018 13.4094 10.3394 13.7253C9.57696 14.0412 8.75952 14.2026 7.93436 14.2002V14.2009Z" fill="white"/>
</svg>
