<svg width="17" height="19" viewBox="0 0 17 19" fill="none" xmlns="http://www.w3.org/2000/svg">
<path d="M14.1717 13.447C13.8326 13.438 13.495 13.4965 13.1783 13.6192C12.8616 13.742 12.5719 13.9265 12.3257 14.1624L5.54816 10.2069C5.60302 9.98823 5.6349 9.76435 5.64325 9.53895C5.63491 9.31355 5.60303 9.08967 5.54816 8.87103L12.2284 4.95902C12.7048 5.40836 13.3199 5.67821 13.9702 5.72318C14.6205 5.76814 15.2663 5.58547 15.7989 5.20589C16.3315 4.82632 16.7184 4.27302 16.8945 3.63909C17.0706 3.00515 17.0252 2.32928 16.7659 1.7252C16.5066 1.12112 16.0492 0.625696 15.4708 0.322294C14.8923 0.0188924 14.228 -0.0739697 13.5897 0.0593334C12.9514 0.192636 12.378 0.543968 11.9661 1.05421C11.5541 1.56446 11.3287 2.20247 11.3278 2.86089C11.336 3.08631 11.3679 3.3102 11.4229 3.52881L4.73984 7.43857C4.21068 6.94586 3.51673 6.67337 2.79708 6.67572C2.42713 6.67689 2.06107 6.75196 1.71995 6.89659C1.37883 7.04122 1.0694 7.25257 0.809447 7.51847C0.549498 7.78437 0.344168 8.09957 0.205271 8.44594C0.0663751 8.7923 -0.00334492 9.163 0.000123318 9.53669C0.00397293 10.0951 0.168326 10.6403 0.473201 11.1061C0.778077 11.5719 1.21034 11.9381 1.71745 12.1604C2.22455 12.3826 2.78465 12.4513 3.32966 12.358C3.87466 12.2647 4.38109 12.0134 4.78739 11.6348L11.518 15.5903C11.4593 15.7924 11.4274 16.0014 11.4229 16.2119C11.4207 16.7616 11.58 17.2996 11.8807 17.7577C12.1814 18.2158 12.6099 18.5735 13.112 18.7854C13.6141 18.9973 14.1671 19.0539 14.7011 18.948C15.2351 18.8421 15.7259 18.5786 16.1115 18.1907C16.497 17.8028 16.7599 17.3081 16.8669 16.7691C16.9739 16.2302 16.9201 15.6713 16.7124 15.1632C16.5047 14.6552 16.1523 14.2208 15.7001 13.9152C15.2478 13.6096 14.7159 13.4464 14.1717 13.4464V13.447Z" fill="white"/>
</svg>
