<svg width="19" height="18" viewBox="0 0 19 18" fill="none" xmlns="http://www.w3.org/2000/svg">
<path d="M8.59047 1.38947L6.32783 5.81772L1.26469 6.52919C1.06006 6.55827 0.867941 6.64194 0.710018 6.77073C0.552095 6.89953 0.43466 7.06833 0.370974 7.25808C0.307287 7.44782 0.299885 7.65096 0.349604 7.84455C0.399322 8.03814 0.504181 8.21447 0.65234 8.35363L4.31523 11.7978L3.44875 16.66C3.41454 16.8563 3.43782 17.0578 3.51598 17.242C3.59415 17.4261 3.72408 17.5856 3.89115 17.7024C4.05823 17.8192 4.25581 17.8887 4.46164 17.9031C4.66747 17.9175 4.87338 17.8762 5.05618 17.7838L9.58555 15.488L14.1149 17.7838C14.2979 17.8762 14.5041 17.9175 14.7102 17.903C14.9162 17.8885 15.114 17.8189 15.2812 17.7018C15.4484 17.5848 15.5783 17.4251 15.6565 17.2407C15.7346 17.0563 15.7578 16.8545 15.7234 16.6581L14.8569 11.7959L18.5198 8.35166C18.6679 8.2125 18.7728 8.03617 18.8225 7.84258C18.8722 7.64899 18.8648 7.44586 18.8011 7.25611C18.7375 7.06636 18.62 6.89756 18.4621 6.76876C18.3042 6.63997 18.1121 6.55631 17.9074 6.52723L12.8433 5.81772L10.5806 1.38947C10.4888 1.21066 10.347 1.06016 10.1711 0.95493C9.99531 0.849704 9.79249 0.793945 9.58555 0.793945C9.37861 0.793945 9.17579 0.849704 8.99996 0.95493C8.82414 1.06016 8.68231 1.21066 8.59047 1.38947Z" fill="#E7FF48"/>
</svg>
